<?xml version="1.0" encoding="utf-8"?>
<!-- Generator: Adobe Illustrator 16.0.0, SVG Export Plug-In . SVG Version: 6.00 Build 0)  -->
<!DOCTYPE svg PUBLIC "-//W3C//DTD SVG 1.1 Basic//EN" "http://www.w3.org/Graphics/SVG/1.1/DTD/svg11-basic.dtd">
<svg version="1.1" baseProfile="basic"
	 id="svg2" xmlns:rdf="http://www.w3.org/1999/02/22-rdf-syntax-ns#" xmlns:cc="http://creativecommons.org/ns#" xmlns:svg="http://www.w3.org/2000/svg" xmlns:dc="http://purl.org/dc/elements/1.1/"
	 xmlns="http://www.w3.org/2000/svg" xmlns:xlink="http://www.w3.org/1999/xlink" x="0px" y="0px" width="745.029px" height="217px"
	 viewBox="0 0 745.029 217" xml:space="preserve">
<g id="g10" transform="matrix(1.3333333,0,0,-1.3333333,-36.416321,874.43904)">
	<g id="g224">
		<g>
			<g>
				<g id="g226">
					<g id="g256" transform="translate(383.5293,235.1777)">
						<path id="path258" fill="#58585A" d="M6.75,350.25H-8.889v-42.972h-4.488v42.972h-15.571v3.944H6.75V350.25z"/>
					</g>
					<g id="g260" transform="translate(383.2588,203.832)">
						<path id="path262" fill="#58585A" d="M6.75,350.25v-2.855c0-3.671,1.926-5.507,5.78-5.507
							c1.993-0.045,4.226,0.441,6.697,1.462c2.47,1.018,4.657,2.389,6.561,4.112v7.89H11.714
							C8.405,355.215,6.75,353.515,6.75,350.25 M4.166,367.726l-0.408,3.193c6.573,0.998,11.854,1.496,15.844,1.496
							c3.534,0,6.175-0.781,7.92-2.345c1.746-1.563,2.619-4.159,2.619-7.786v-23.662h-3.4l-0.545,5.78
							c-1.631-1.63-3.751-3.092-6.357-4.384c-2.607-1.292-5.294-1.94-8.057-1.94c-2.903,0-5.191,0.772-6.868,2.313
							c-1.677,1.542-2.515,3.741-2.515,6.595v3.809c0,2.538,0.748,4.511,2.245,5.916c1.496,1.404,3.625,2.108,6.39,2.108h14.754
							v3.467c0,2.176-0.51,3.784-1.529,4.827c-1.019,1.044-2.845,1.565-5.474,1.565C14.888,368.677,10.013,368.359,4.166,367.726"/>
					</g>
					<g id="g264" transform="translate(418.751,239.8018)">
						<path id="path266" fill="#58585A" d="M6.75,350.25v-39.437c0-3.173,1.609-4.759,4.827-4.759h3.468l0.477-3.265
							c-1.225-0.453-3.038-0.68-5.44-0.68c-2.356,0-4.215,0.691-5.576,2.074c-1.359,1.383-2.039,3.32-2.039,5.814v40.253H6.75z"/>
					</g>
					<g id="g268" transform="translate(433.3682,209.9521)">
						<path id="path270" fill="#58585A" d="M6.75,350.25h15.435c2.899,0,4.306,1.903,4.216,5.711
							c-0.046,2.312-0.794,3.989-2.244,5.032c-1.451,1.043-3.763,1.567-6.936,1.567c-3.852,0-6.55-0.897-8.091-2.687
							C7.588,358.079,6.794,354.873,6.75,350.25 M23.204,346.851H6.75c0.272-4.353,1.269-7.344,2.992-8.977
							c1.723-1.631,4.531-2.448,8.432-2.448c3.399,0,7.184,0.272,11.353,0.817l0.477-2.925c-2.811-1.088-6.959-1.63-12.443-1.63
							c-5.531,0-9.463,1.326-11.796,3.977c-2.334,2.651-3.502,7.126-3.502,13.43c0,6.344,1.135,10.799,3.401,13.36
							c2.265,2.561,6.052,3.841,11.355,3.841c4.668,0,8.112-0.849,10.335-2.549c2.221-1.7,3.354-4.272,3.4-7.718
							C30.842,349.91,28.327,346.851,23.204,346.851"/>
					</g>
					<g id="g272" transform="translate(467.0244,225.1152)">
						<path id="path274" fill="#58585A" d="M6.75,350.25l0.34-5.439c5.485,4.214,10.561,6.322,15.231,6.322
							c5.892,0,8.839-3.015,8.839-9.044v-24.749h-4.284v23.593c0,2.312-0.441,3.966-1.323,4.963
							c-0.885,0.998-2.348,1.497-4.387,1.497c-1.996,0-4-0.454-6.018-1.361c-2.017-0.906-4.567-2.355-7.649-4.351v-24.341H3.148
							v32.909H6.75z"/>
					</g>
					<g id="g276" transform="translate(515.9795,195.6055)">
						<path id="path278" fill="#58585A" d="M6.75,350.25l0.545-3.266c-2.269-0.451-4.556-0.678-6.868-0.678
							c-5.439,0-8.159,2.742-8.159,8.227v21.825h-5.983v3.062l5.983,0.34v9.995h4.283v-9.995H7.703v-3.401H-3.449V355.01
							c0-3.174,1.608-4.76,4.827-4.76H6.75z"/>
					</g>
					<g id="g280" transform="translate(536.3096,206.1445)">
						<path id="path282" fill="#58585A" d="M6.75,350.25l-10.063,1.904c-2.583,0.498-4.455,1.438-5.61,2.822
							c-1.156,1.382-1.734,3.433-1.734,6.153c0,3.716,0.94,6.152,2.822,7.308c1.879,1.156,5.156,1.712,9.824,1.667
							c4.987-0.092,9.474-0.431,13.464-1.02l-0.409-3.129c-5.44,0.273-9.609,0.408-12.51,0.408
							c-3.627,0.045-6.029-0.216-7.208-0.782c-1.178-0.567-1.766-2.052-1.766-4.453c0-1.859,0.383-3.151,1.155-3.875
							c0.77-0.727,2.061-1.27,3.876-1.633l10.132-1.904c2.628-0.543,4.553-1.485,5.778-2.821c1.225-1.337,1.835-3.344,1.835-6.018
							c0-3.853-1.029-6.368-3.093-7.548c-2.062-1.178-5.588-1.768-10.572-1.768c-4.487,0-8.682,0.296-12.58,0.883l0.341,3.198
							c3.581-0.319,7.411-0.454,11.491-0.409c4.033,0.046,6.74,0.42,8.123,1.121c1.384,0.705,2.073,2.213,2.073,4.523
							c0,1.768-0.431,3.015-1.291,3.74C9.967,349.342,8.608,349.887,6.75,350.25"/>
					</g>
					<path id="path284" fill="#58585A" d="M238.773,543.275h-9.939v45.122h9.939V543.275z"/>
					<g id="g286" transform="translate(277.7339,238.1475)">
						<path id="path288" fill="#58585A" d="M6.75,350.25l-12.229-42.376c-0.217-0.828-0.643-1.493-1.275-1.995
							s-1.385-0.751-2.256-0.751h-9.09c-0.872,0-1.624,0.249-2.256,0.751c-0.632,0.502-1.058,1.167-1.275,1.995l-12.294,42.376
							h10.267l8.175-32.566c0.435-1.746,0.805-3.423,1.112-5.038h1.634c0.13,0.828,0.5,2.506,1.111,5.038l8.11,32.566H6.75z"/>
					</g>
					<g id="g290" transform="translate(306.998,227.749)">
						<path id="path292" fill="#58585A" d="M6.75,350.25c-1.241,2.136-3.563,3.204-6.965,3.204c-3.4,0-5.721-1.067-6.964-3.204
							c-1.242-2.137-1.863-6.19-1.863-12.163c0-5.974,0.621-10.027,1.863-12.164c1.243-2.136,3.564-3.203,6.964-3.203
							c3.402,0,5.724,1.067,6.965,3.203c1.242,2.137,1.864,6.19,1.864,12.164C8.614,344.06,7.992,348.113,6.75,350.25
							 M-15.288,356.495c2.813,3.336,7.835,5.003,15.073,5.003c7.236,0,12.272-1.667,15.106-5.003
							c2.833-3.334,4.251-9.472,4.251-18.408c0-8.938-1.418-15.072-4.251-18.408c-2.834-3.335-7.87-5.005-15.106-5.005
							c-7.238,0-12.26,1.668-15.073,5.005c-2.812,3.336-4.217,9.47-4.217,18.408C-19.505,347.023-18.1,353.161-15.288,356.495"/>
					</g>
					<path id="path294" fill="#58585A" d="M342.969,542.61h-1.626v47.104h1.626V542.61z"/>
					<g id="g296" transform="translate(84.0576,190.0078)">
						<path id="path298" fill="#00C4B4" d="M6.75,350.25c0,0-20.043-3.611-27.001,20.024c-8.241-2.426-9.972-13.485-2.744-18.128
							C-16.89,348.222-7.496,346.057,6.75,350.25"/>
					</g>
					<g id="g300" transform="translate(124.3296,258.2539)">
						<path id="path302" fill="#D6006E" d="M6.75,350.25c0-4.426-3.588-8.014-8.014-8.014c-4.426,0-8.014,3.588-8.014,8.014
							s3.588,8.014,8.014,8.014C3.162,358.264,6.75,354.676,6.75,350.25"/>
					</g>
					<g id="g304" transform="translate(115.936,242.5771)">
						<path id="path306" fill="#B12029" d="M6.75,350.25c-2.474-0.304-4.371-0.66-6.116-1.622l4.832-7.815
							c5.518,0.73,12.161-0.272,19.485-5.191C18.818,347.348,15.277,351.296,6.75,350.25"/>
					</g>
					<g id="g308" transform="translate(109.9492,241.0205)">
						<path id="path310" fill="#13235B" d="M6.75,350.25l-0.001,0.001c-0.011-0.006-0.022-0.013-0.034-0.019
							C6.727,350.238,6.739,350.244,6.75,350.25"/>
					</g>
					<g id="g312" transform="translate(114.6523,233.1416)">
						<path id="path314" fill="#001F60" d="M6.75,350.25l-4.83,7.811c-3.337-1.838-6.122-5.884-11.328-16.002
							c0,0,6.275,6.896,16.181,8.194C6.765,350.252,6.758,350.251,6.75,350.25"/>
					</g>
					<g id="g316" transform="translate(114.6753,233.1436)">
						<path id="path318" fill="#0033A1" d="M6.75,350.25c-9.901-1.297-16.174-8.187-16.181-8.194
							c-4.422-7.502-8.824-14.52-11.061-16.799c-5.099-5.191-9.802-11.565-24.3-10.015c7.931-9.453,18.856-8.413,20.664-8.167
							c0.161,0.029,0.319,0.053,0.483,0.085c11.103,2.177,18.504,14.42,19.762,16.749c0.74,1.371,7.617,12.921,13.151,22.196
							c-0.869,1.457-1.703,2.854-2.477,4.15C6.777,350.253,6.763,350.252,6.75,350.25"/>
					</g>
				</g>
			</g>
		</g>
	</g>
	<g id="g320">
		<g>
			<g>
				<g>
					<g>
						<defs>
							<rect id="SVGID_1_" x="164.519" y="549.425" width="0.325" height="0.5"/>
						</defs>
						<clipPath id="SVGID_2_">
							<use xlink:href="#SVGID_1_"  overflow="visible"/>
						</clipPath>
						<g id="g322" clip-path="url(#SVGID_2_)">
							<g id="g328" transform="translate(157.9824,199.5029)">
								<path id="path330" fill="#BD0926" d="M6.75,350.25c-0.002,0.001-0.005,0.002-0.007,0.002c0,0-0.033-0.059-0.094-0.157
									L6.75,350.25z"/>
							</g>
						</g>
					</g>
				</g>
			</g>
		</g>
	</g>
	<g id="g332">
		<g>
			<g>
				<g>
					<g>
						<defs>
							<rect id="SVGID_3_" x="133.567" y="529.966" width="46.93" height="29.419"/>
						</defs>
						<clipPath id="SVGID_4_">
							<use xlink:href="#SVGID_3_"  overflow="visible"/>
						</clipPath>
						<g id="g334" clip-path="url(#SVGID_4_)">
							<g id="g340" transform="translate(157.7075,199.0781)">
								<path id="path342" fill="#B12029" d="M6.75,350.25c-1.09-1.622-5.612-7.298-14.849-6.034c0,0,3.105-2.395,8.815-3.274
									L6.75,350.25z"/>
							</g>
						</g>
					</g>
				</g>
			</g>
		</g>
	</g>
	<g id="g344">
		<g>
			<g>
				<g id="g346">
					<g id="g352" transform="translate(157.9756,199.5059)">
						<path id="path354" fill="#1C1F2A" d="M6.75,350.25c0,0-0.196-0.354-0.602-0.896l-5.785-8.826
							c2.287-0.357,4.985-0.483,8.091-0.1c10.786,1.334,14.978,8.989,14.978,8.989S14.514,347.342,6.75,350.25"/>
					</g>
					<g id="g356" transform="translate(178.5796,230.3799)">
						<path id="path358" fill="#007935" d="M6.75,350.25c0,0-9.043-13.469-15.775-23.492c-0.14-0.208-0.258-0.412-0.381-0.617
							l-1.469-2.188l-2.979-4.578c7.764-2.907,16.681-0.833,16.682-0.832c3.863,5.753,9.621,14.328,9.621,14.328
							c0.138,0.205,0.257,0.409,0.38,0.614c3.339,4.972,6.455,9.614,8.453,12.589c6.392,9.519,14.396,5.467,14.396,5.467
							C21.178,365.392,6.75,350.25,6.75,350.25"/>
					</g>
					<g id="g360" transform="translate(176.9507,227.9551)">
						<path id="path362" fill="#61AC26" d="M6.75,350.25c-0.001-0.002-0.002-0.003-0.003-0.005v0.001
							C6.748,350.247,6.749,350.249,6.75,350.25"/>
					</g>
					<g id="g364" transform="translate(201.0391,245.499)">
						<path id="path366" fill="#62A70F" d="M6.75,350.25c-6.64-0.814-14.475-4.569-22.144-14.807
							c2.178,2.088,15.364,13.634,28.612,0.979c0,0-0.11,0.053-0.307,0.135c1.082-0.586,2.185-1.249,3.312-2.006
							C21.012,341.683,15.277,351.296,6.75,350.25"/>
					</g>
					<g id="g368" transform="translate(157.3984,198.6445)">
						<path id="path370" fill="#FF4814" d="M6.75,350.25c0.036,0.049,0.072,0.097,0.105,0.142c0.012,0.018,0.024,0.034,0.036,0.051
							c0.03,0.042,0.058,0.083,0.085,0.121c0.016,0.023,0.031,0.045,0.046,0.068c0.095,0.138,0.169,0.253,0.219,0.335
							c0.006,0.01,0.011,0.018,0.016,0.026c0.01,0.018,0.019,0.031,0.027,0.045c0.009,0.017,0.018,0.031,0.025,0.042
							c-5.008,1.997-7.933,5.553-11.004,8.68c-2.534,2.58-7.845,11.241-12.817,19.798c-7.296,4.898-13.915,5.91-19.42,5.198
							c5.702-9.549,14.772-24.76,15.629-26.346c0.959-1.776,5.493-9.312,12.513-13.759C0.749,343.481,5.256,348.242,6.75,350.25"/>
					</g>
					<g id="g372" transform="translate(156.3618,189.4521)">
						<path id="path374" fill="#E54228" d="M6.75,350.25c1.048,0.009,2.048,0.08,3.003,0.198
							C8.706,350.33,7.702,350.264,6.75,350.25"/>
					</g>
				</g>
			</g>
		</g>
	</g>
</g>
</svg>
